<mxfile host="app.diagrams.net" modified="2022-09-25T14:08:35.949Z" agent="5.0 (Windows NT 10.0; WOW64) AppleWebKit/537.36 (KHTML, like Gecko) Chrome/105.0.0.0 Safari/537.36" etag="J3WIPLJ_R6nhHebW1IIQ" version="20.2.1" type="github">
  <diagram id="P1KyQecb3_lS92I9GrIe" name="第 1 页">
    <mxGraphModel dx="827" dy="459" grid="1" gridSize="10" guides="1" tooltips="1" connect="1" arrows="1" fold="1" page="1" pageScale="1" pageWidth="827" pageHeight="1169" math="0" shadow="0">
      <root>
        <mxCell id="0" />
        <mxCell id="1" parent="0" />
        <mxCell id="-f15-j_1cpKKH325Tn5B-32" value="Pool" style="swimlane;childLayout=stackLayout;resizeParent=1;resizeParentMax=0;startSize=20;rounded=0;shadow=0;sketch=0;" vertex="1" parent="1">
          <mxGeometry x="160" y="310" width="1310" height="850" as="geometry" />
        </mxCell>
        <mxCell id="-f15-j_1cpKKH325Tn5B-68" style="edgeStyle=orthogonalEdgeStyle;rounded=0;orthogonalLoop=1;jettySize=auto;html=1;entryX=1;entryY=0.5;entryDx=0;entryDy=0;entryPerimeter=0;shadow=0;strokeColor=default;exitX=0.5;exitY=1;exitDx=0;exitDy=0;" edge="1" parent="-f15-j_1cpKKH325Tn5B-32" target="-f15-j_1cpKKH325Tn5B-42">
          <mxGeometry relative="1" as="geometry">
            <mxPoint x="1125" y="510" as="sourcePoint" />
          </mxGeometry>
        </mxCell>
        <mxCell id="-f15-j_1cpKKH325Tn5B-33" value="new service" style="swimlane;startSize=20;rounded=0;shadow=0;sketch=0;" vertex="1" parent="-f15-j_1cpKKH325Tn5B-32">
          <mxGeometry y="20" width="320" height="830" as="geometry" />
        </mxCell>
        <mxCell id="-f15-j_1cpKKH325Tn5B-40" value="计划开始" style="strokeWidth=2;html=1;shape=mxgraph.flowchart.start_1;whiteSpace=wrap;rounded=0;shadow=0;sketch=0;gradientColor=none;" vertex="1" parent="-f15-j_1cpKKH325Tn5B-33">
          <mxGeometry x="90" y="80" width="100" height="60" as="geometry" />
        </mxCell>
        <mxCell id="-f15-j_1cpKKH325Tn5B-75" style="edgeStyle=orthogonalEdgeStyle;rounded=0;orthogonalLoop=1;jettySize=auto;html=1;entryX=0.5;entryY=1;entryDx=0;entryDy=0;shadow=0;strokeColor=default;" edge="1" parent="-f15-j_1cpKKH325Tn5B-33" source="-f15-j_1cpKKH325Tn5B-42" target="-f15-j_1cpKKH325Tn5B-73">
          <mxGeometry relative="1" as="geometry" />
        </mxCell>
        <mxCell id="-f15-j_1cpKKH325Tn5B-42" value="t_sms_push&lt;br&gt;_detail" style="strokeWidth=2;html=1;shape=mxgraph.flowchart.database;whiteSpace=wrap;rounded=0;shadow=0;sketch=0;gradientColor=none;align=center;" vertex="1" parent="-f15-j_1cpKKH325Tn5B-33">
          <mxGeometry x="90" y="705" width="70" height="60" as="geometry" />
        </mxCell>
        <mxCell id="-f15-j_1cpKKH325Tn5B-66" style="edgeStyle=orthogonalEdgeStyle;rounded=0;orthogonalLoop=1;jettySize=auto;html=1;entryX=0;entryY=0.5;entryDx=0;entryDy=0;entryPerimeter=0;shadow=0;strokeColor=default;" edge="1" parent="-f15-j_1cpKKH325Tn5B-33" source="-f15-j_1cpKKH325Tn5B-45" target="-f15-j_1cpKKH325Tn5B-41">
          <mxGeometry relative="1" as="geometry" />
        </mxCell>
        <mxCell id="-f15-j_1cpKKH325Tn5B-67" style="edgeStyle=orthogonalEdgeStyle;rounded=0;orthogonalLoop=1;jettySize=auto;html=1;shadow=0;strokeColor=default;" edge="1" parent="-f15-j_1cpKKH325Tn5B-33" source="-f15-j_1cpKKH325Tn5B-45" target="-f15-j_1cpKKH325Tn5B-59">
          <mxGeometry relative="1" as="geometry" />
        </mxCell>
        <mxCell id="-f15-j_1cpKKH325Tn5B-45" value="t_push_record" style="strokeWidth=2;html=1;shape=mxgraph.flowchart.database;whiteSpace=wrap;rounded=0;shadow=0;sketch=0;gradientColor=none;" vertex="1" parent="-f15-j_1cpKKH325Tn5B-33">
          <mxGeometry x="40" y="470" width="80" height="60" as="geometry" />
        </mxCell>
        <mxCell id="-f15-j_1cpKKH325Tn5B-60" style="edgeStyle=orthogonalEdgeStyle;rounded=0;orthogonalLoop=1;jettySize=auto;html=1;entryX=0;entryY=0.5;entryDx=0;entryDy=0;entryPerimeter=0;shadow=0;strokeColor=default;exitX=0;exitY=0.5;exitDx=0;exitDy=0;" edge="1" parent="-f15-j_1cpKKH325Tn5B-33" source="-f15-j_1cpKKH325Tn5B-49" target="-f15-j_1cpKKH325Tn5B-45">
          <mxGeometry relative="1" as="geometry" />
        </mxCell>
        <mxCell id="-f15-j_1cpKKH325Tn5B-49" value="人群数据" style="rounded=1;whiteSpace=wrap;html=1;absoluteArcSize=1;arcSize=14;strokeWidth=2;shadow=0;sketch=0;gradientColor=none;" vertex="1" parent="-f15-j_1cpKKH325Tn5B-33">
          <mxGeometry x="90" y="190" width="90" height="50" as="geometry" />
        </mxCell>
        <mxCell id="-f15-j_1cpKKH325Tn5B-59" value="筛选后人群数" style="rounded=1;whiteSpace=wrap;html=1;absoluteArcSize=1;arcSize=14;strokeWidth=2;shadow=0;sketch=0;gradientColor=none;" vertex="1" parent="-f15-j_1cpKKH325Tn5B-33">
          <mxGeometry x="90" y="310" width="90" height="50" as="geometry" />
        </mxCell>
        <mxCell id="-f15-j_1cpKKH325Tn5B-41" value="t_sms_push" style="strokeWidth=2;html=1;shape=mxgraph.flowchart.database;whiteSpace=wrap;rounded=0;shadow=0;sketch=0;gradientColor=none;" vertex="1" parent="-f15-j_1cpKKH325Tn5B-33">
          <mxGeometry x="190" y="470" width="70" height="60" as="geometry" />
        </mxCell>
        <mxCell id="-f15-j_1cpKKH325Tn5B-74" style="edgeStyle=orthogonalEdgeStyle;rounded=0;orthogonalLoop=1;jettySize=auto;html=1;entryX=0.5;entryY=1;entryDx=0;entryDy=0;entryPerimeter=0;shadow=0;strokeColor=default;" edge="1" parent="-f15-j_1cpKKH325Tn5B-33" source="-f15-j_1cpKKH325Tn5B-73" target="-f15-j_1cpKKH325Tn5B-41">
          <mxGeometry relative="1" as="geometry" />
        </mxCell>
        <mxCell id="-f15-j_1cpKKH325Tn5B-73" value="更新成功/失败数" style="rounded=1;whiteSpace=wrap;html=1;absoluteArcSize=1;arcSize=14;strokeWidth=2;shadow=0;sketch=0;gradientColor=none;" vertex="1" parent="-f15-j_1cpKKH325Tn5B-33">
          <mxGeometry x="80" y="590" width="90" height="50" as="geometry" />
        </mxCell>
        <mxCell id="-f15-j_1cpKKH325Tn5B-34" value="七牛云 " style="swimlane;startSize=20;rounded=0;shadow=0;sketch=0;" vertex="1" parent="-f15-j_1cpKKH325Tn5B-32">
          <mxGeometry x="320" y="20" width="320" height="830" as="geometry" />
        </mxCell>
        <mxCell id="-f15-j_1cpKKH325Tn5B-46" value="人群包" style="ellipse;shape=cloud;whiteSpace=wrap;html=1;rounded=0;shadow=0;sketch=0;gradientColor=none;" vertex="1" parent="-f15-j_1cpKKH325Tn5B-34">
          <mxGeometry x="100" y="70" width="120" height="80" as="geometry" />
        </mxCell>
        <mxCell id="-f15-j_1cpKKH325Tn5B-53" value="" style="shape=image;html=1;verticalAlign=bottom;verticalLabelPosition=bottom;labelBackgroundColor=#ffffff;imageAspect=0;aspect=fixed;image=https://cdn3.iconfinder.com/data/icons/document-icons-2/30/647702-excel-128.png;rounded=0;shadow=0;sketch=0;gradientColor=none;imageBackground=none;" vertex="1" parent="-f15-j_1cpKKH325Tn5B-34">
          <mxGeometry x="10" y="190" width="60" height="60" as="geometry" />
        </mxCell>
        <mxCell id="-f15-j_1cpKKH325Tn5B-35" value="rrtv-third" style="swimlane;startSize=20;rounded=0;shadow=0;sketch=0;swimlaneFillColor=none;gradientColor=none;" vertex="1" parent="-f15-j_1cpKKH325Tn5B-32">
          <mxGeometry x="640" y="20" width="320" height="830" as="geometry" />
        </mxCell>
        <mxCell id="-f15-j_1cpKKH325Tn5B-55" value="sms" style="rounded=1;whiteSpace=wrap;html=1;absoluteArcSize=1;arcSize=14;strokeWidth=2;shadow=0;sketch=0;gradientColor=none;" vertex="1" parent="-f15-j_1cpKKH325Tn5B-35">
          <mxGeometry x="110" y="310" width="90" height="50" as="geometry" />
        </mxCell>
        <mxCell id="-f15-j_1cpKKH325Tn5B-39" value="第三方" style="swimlane;startSize=20;rounded=0;shadow=0;sketch=0;swimlaneFillColor=none;gradientColor=none;" vertex="1" parent="-f15-j_1cpKKH325Tn5B-32">
          <mxGeometry x="960" y="20" width="350" height="830" as="geometry" />
        </mxCell>
        <mxCell id="-f15-j_1cpKKH325Tn5B-57" value="sms" style="rounded=1;whiteSpace=wrap;html=1;absoluteArcSize=1;arcSize=14;strokeWidth=2;shadow=0;sketch=0;gradientColor=none;" vertex="1" parent="-f15-j_1cpKKH325Tn5B-39">
          <mxGeometry x="130" y="305" width="90" height="50" as="geometry" />
        </mxCell>
        <mxCell id="-f15-j_1cpKKH325Tn5B-48" style="edgeStyle=orthogonalEdgeStyle;rounded=0;orthogonalLoop=1;jettySize=auto;html=1;" edge="1" parent="-f15-j_1cpKKH325Tn5B-32" source="-f15-j_1cpKKH325Tn5B-40">
          <mxGeometry relative="1" as="geometry">
            <mxPoint x="430" y="130" as="targetPoint" />
          </mxGeometry>
        </mxCell>
        <mxCell id="-f15-j_1cpKKH325Tn5B-50" style="edgeStyle=orthogonalEdgeStyle;rounded=0;orthogonalLoop=1;jettySize=auto;html=1;entryX=1;entryY=0.5;entryDx=0;entryDy=0;exitX=0.55;exitY=0.95;exitDx=0;exitDy=0;exitPerimeter=0;shadow=0;strokeColor=default;" edge="1" parent="-f15-j_1cpKKH325Tn5B-32" source="-f15-j_1cpKKH325Tn5B-46" target="-f15-j_1cpKKH325Tn5B-49">
          <mxGeometry relative="1" as="geometry">
            <Array as="points">
              <mxPoint x="486" y="235" />
            </Array>
          </mxGeometry>
        </mxCell>
        <mxCell id="-f15-j_1cpKKH325Tn5B-62" style="edgeStyle=orthogonalEdgeStyle;rounded=0;orthogonalLoop=1;jettySize=auto;html=1;shadow=0;strokeColor=default;" edge="1" parent="-f15-j_1cpKKH325Tn5B-32" source="-f15-j_1cpKKH325Tn5B-59" target="-f15-j_1cpKKH325Tn5B-55">
          <mxGeometry relative="1" as="geometry" />
        </mxCell>
        <mxCell id="-f15-j_1cpKKH325Tn5B-63" style="edgeStyle=orthogonalEdgeStyle;rounded=0;orthogonalLoop=1;jettySize=auto;html=1;shadow=0;strokeColor=default;" edge="1" parent="-f15-j_1cpKKH325Tn5B-32" source="-f15-j_1cpKKH325Tn5B-55">
          <mxGeometry relative="1" as="geometry">
            <mxPoint x="1090" y="355" as="targetPoint" />
          </mxGeometry>
        </mxCell>
      </root>
    </mxGraphModel>
  </diagram>
</mxfile>
